<svg width="21" height="20" viewBox="0 0 21 20" fill="none" xmlns="http://www.w3.org/2000/svg">
<path d="M20.0017 2C20.554 2 21.0017 2.44772 21.0017 3C21.0017 3.55228 20.554 4 20.0017 4H16.0017C15.4494 4 15.0017 3.55228 15.0017 3C15.0017 2.44772 15.4494 2 16.0017 2H20.0017Z" fill="#EA580C"/>
<path d="M17.0017 5V1C17.0017 0.447715 17.4494 0 18.0017 0C18.554 0 19.0017 0.447715 19.0017 1V5C19.0017 5.55228 18.554 6 18.0017 6C17.4494 6 17.0017 5.55228 17.0017 5Z" fill="#EA580C"/>
<path d="M9.58282 0.0132728C10.1871 0.029162 10.6392 0.407512 10.8494 0.847257C11.0646 1.29767 11.0638 1.86902 10.7635 2.34823L10.7625 2.34726C10.1636 3.3059 9.90804 4.43996 10.0359 5.56308C10.1639 6.68637 10.6691 7.73337 11.4686 8.5328C12.268 9.33212 13.315 9.83653 14.4383 9.96445C15.5616 10.0923 16.6954 9.83611 17.6541 9.23691L17.8367 9.13827C18.2721 8.94057 18.7582 8.96176 19.1531 9.14999C19.6236 9.37434 20.0213 9.87524 19.9852 10.5406C19.8809 12.4694 19.22 14.3269 18.0828 15.8883C16.9455 17.4497 15.38 18.6485 13.576 19.3394C11.772 20.0303 9.80617 20.1841 7.9168 19.7818C6.02744 19.3795 4.29551 18.4377 2.9295 17.0719C1.56344 15.7059 0.622072 13.974 0.219535 12.0846C-0.18298 10.1951 -0.0297835 8.2295 0.660941 6.42538C1.3517 4.62124 2.55065 3.05605 4.11211 1.91855C5.67356 0.781086 7.53077 0.119562 9.45977 0.0152259L9.58282 0.0132728ZM8.62286 2.12069C7.42233 2.33047 6.28069 2.81223 5.28887 3.53476C4.03993 4.44468 3.08168 5.69714 2.52911 7.14023C1.97651 8.5835 1.85361 10.156 2.17559 11.6676C2.49761 13.1791 3.25068 14.565 4.34356 15.6578C5.43643 16.7505 6.82221 17.5039 8.33379 17.8258C9.84536 18.1476 11.4179 18.024 12.8611 17.4713C14.3043 16.9185 15.5568 15.9598 16.4666 14.7105C17.1888 13.7189 17.669 12.5777 17.8787 11.3775C16.7353 11.8928 15.4693 12.095 14.2117 11.9517C12.639 11.7726 11.1728 11.0662 10.0535 9.94687C8.93432 8.82759 8.22774 7.36135 8.04864 5.78866C7.90547 4.53084 8.10736 3.26426 8.62286 2.12069Z" fill="#EA580C"/>
</svg>
