<svg width="20" height="22" viewBox="0 0 20 22" fill="none" xmlns="http://www.w3.org/2000/svg">
<path d="M10 0C10.5249 0 11.0401 0.138705 11.4951 0.400391L11.4961 0.399414L18.4961 4.39941L18.5 4.40234C18.9555 4.66538 19.3344 5.04361 19.5977 5.49902C19.8608 5.95439 19.9995 6.47114 20 6.99707V14.999C19.9995 15.525 19.8608 16.0417 19.5977 16.4971C19.3344 16.9525 18.9556 17.3307 18.5 17.5938L18.4961 17.5967L11.4961 21.5967L11.4951 21.5957C11.0401 21.8574 10.5249 21.9961 10 21.9961C9.4748 21.9961 8.95906 21.8576 8.50391 21.5957L1.50391 17.5967L1.5 17.5938C1.04444 17.3307 0.665603 16.9525 0.402344 16.4971C0.139175 16.0417 0.000547834 15.525 0 14.999V6.99707L0.00683594 6.7998C0.037418 6.34254 0.172188 5.89734 0.402344 5.49902C0.665587 5.04361 1.04448 4.66538 1.5 4.40234L1.50391 4.39941L8.50391 0.399414C8.95909 0.137454 9.47477 0 10 0ZM10 2C9.82449 2 9.652 2.04605 9.5 2.13379L9.49609 2.13574L2.49902 6.13281L2.5 6.13379C2.34813 6.22147 2.22155 6.34818 2.13379 6.5C2.04623 6.6517 2.00018 6.82386 2 6.99902V14.9971L2.00879 15.1279C2.02601 15.2572 2.06815 15.3824 2.13379 15.4961C2.22077 15.6466 2.34602 15.7718 2.49609 15.8594L9.49609 19.8594L9.5 19.8623C9.65198 19.95 9.82453 19.9961 10 19.9961C10.1755 19.9961 10.348 19.95 10.5 19.8623L10.5039 19.8594L17.5039 15.8594C17.654 15.7718 17.7792 15.6466 17.8662 15.4961C17.9536 15.3447 17.9996 15.1729 18 14.998V6.99902L17.9912 6.86816C17.974 6.73888 17.9318 6.61368 17.8662 6.5C17.7785 6.34818 17.6519 6.22147 17.5 6.13379L10.5039 2.13574L10.5 2.13379C10.348 2.04605 10.1755 2 10 2Z" fill="#EA580C"/>
<path d="M18.2014 5.13076C18.6802 4.85557 19.2914 5.02106 19.5666 5.4999C19.8418 5.97873 19.6772 6.58993 19.1984 6.86514L10.4982 11.8651C10.1899 12.0423 9.81057 12.0422 9.50215 11.8651L0.801953 6.86514C0.323199 6.58999 0.157821 5.9787 0.432812 5.4999C0.707959 5.02115 1.31925 4.85577 1.79805 5.13076L9.99922 9.84365L18.2014 5.13076Z" fill="#EA580C"/>
<path d="M9 20.9979V10.9979C9 10.4457 9.44772 9.99795 10 9.99795C10.5523 9.99795 11 10.4457 11 10.9979V20.9979C11 21.5502 10.5523 21.9979 10 21.9979C9.44772 21.9979 9 21.5502 9 20.9979Z" fill="#EA580C"/>
</svg>
